<?xml version="1.0" encoding="UTF-8" standalone="no"?>
<!DOCTYPE svg PUBLIC "-//W3C//DTD SVG 1.1//EN" "http://www.w3.org/Graphics/SVG/1.1/DTD/svg11.dtd">
<svg width="100%" height="100%" viewBox="0 0 2481 2481" version="1.1" xmlns="http://www.w3.org/2000/svg" xmlns:xlink="http://www.w3.org/1999/xlink" xml:space="preserve" xmlns:serif="http://www.serif.com/" style="fill-rule:evenodd;clip-rule:evenodd;stroke-linejoin:round;stroke-miterlimit:2;">
    <g transform="matrix(1,0,0,1,-8178.92,-2690.84)">
        <g id="Artboard1" transform="matrix(0.707071,0,0,1,8178.92,2690.84)">
            <rect x="0" y="0" width="3507.87" height="2480.32" style="fill:none;"/>
            <g transform="matrix(1.41429,0,0,1,-11567.3,0)">
                <rect x="8178.92" y="0" width="2480.32" height="2480.32" style="fill:none;"/>
            </g>
            <g transform="matrix(1.60411,0,0,1.13422,-1041.42,-256.907)">
                <g transform="matrix(0.831271,0,0,0.831271,276.411,122.237)">
                    <path d="M2523.68,1581.46C2521.46,1586.37 2477,1577.18 2477,1577.18C2527.05,1471.88 2553.02,1356.75 2553.02,1240.16C2553.02,973.329 2417.5,724.763 2193.22,580.21C2193.22,580.21 2256.52,570.093 2260.01,572.667C2471.19,728.331 2597.17,975.755 2597.17,1240.16C2597.17,1357.91 2572.09,1474.26 2523.68,1581.46Z" style="fill:rgb(253,248,195);"/>
                </g>
                <g transform="matrix(0.831271,0,0,0.831271,276.411,122.237)">
                    <path d="M1775,410.89C1779.29,410.927 1781.18,455.1 1777.43,455.062C1774.12,455.029 1770.83,455.012 1767.87,455.012C1334.54,455.012 982.727,806.824 982.727,1240.16C982.727,1351.98 1006.61,1462.45 1052.72,1564.21C1054.69,1568.55 1013.13,1583.89 1010.38,1577.72C963.072,1471.55 938.575,1356.54 938.575,1240.16C938.575,782.456 1310.17,410.86 1767.87,410.86C1770.25,410.86 1772.62,410.87 1775,410.89Z" style="fill:rgb(253,248,195);"/>
                </g>
                <path d="M2029.72,1279.77C2029.72,1279.77 2023.93,1288.53 1983.69,1253.91C1949.73,1224.69 1885.83,1200.19 1708.48,1283.38C1708.48,1283.38 1877.4,1130.79 1859.73,841.417C1855.51,772.171 1847.86,683.47 1816.29,600.527C1816.29,600.527 2197.63,846.342 2029.72,1279.77Z" style="fill:rgb(220,45,38);"/>
                <path d="M1794.3,617.427C1794.3,617.427 1889.48,1068.54 1637.83,1315.37C1637.83,1315.37 1606.99,1271.15 1486.11,1283.38C1329.93,1299.18 1309.11,1257.58 1309.11,1257.58C1309.11,1257.58 1580.79,1245.76 1738.84,851.271C1767.05,780.846 1788.8,708.004 1794.3,617.427Z" style="fill:rgb(220,45,38);"/>
                <path d="M1802.83,586.075L1792.81,463.773C1792.81,463.773 1867.56,428.912 1966.97,482.084C2066.38,535.256 2068.75,536.61 2155.87,530.633C2251.51,524.07 2283.2,562.166 2312.3,567.098C2341.39,572.03 2306.92,580.309 2267.47,570.938C2228.01,561.567 2234.86,548.149 2174.33,557.85C2085.84,572.032 2073.59,585.346 1975.45,546.384C1877.3,507.422 1811.92,569.784 1802.83,586.075Z" style="fill:rgb(220,45,38);"/>
                <path d="M1333.98,1385.2C1333.98,1385.2 1378.78,1415.83 1650.9,1355.62C1923.02,1295.42 2010.92,1271.03 2169.86,1315.37L2146.26,1344.37C2146.26,1344.37 2106.02,1330.95 2027.5,1335.3L2021.58,1347.53C2021.58,1347.53 2103.65,1347.13 2135.61,1357.79C2135.61,1357.79 2054.82,1508.67 1919.96,1505.59C1785.11,1502.51 1770.65,1478.87 1677.4,1465.94C1563.45,1450.16 1398.98,1459.55 1333.98,1385.2ZM1955.72,1456.56C1965.15,1457.5 2020.47,1319.78 2001.62,1315.37C1981.84,1310.74 1944.28,1455.43 1955.72,1456.56ZM1949.93,1332.62C1609.78,1404.99 1416.63,1409.85 1416.63,1409.85C1461.01,1414.78 1599.11,1404.92 1682.95,1391.77C1766.79,1378.62 1947.17,1351.95 1947.17,1351.95L1949.93,1332.62Z" style="fill:rgb(253,248,195);"/>
                <path d="M1191.85,1535.67C1191.85,1535.67 1244.4,1570.87 1386.96,1523.67C1529.52,1476.47 1624.06,1474.06 1755.61,1532.82C1887.16,1591.58 1951.34,1618.45 2072.43,1606.89C2193.53,1595.33 2140.55,1603.03 2037.48,1637.71C1934.41,1672.39 1849.65,1648.31 1688.78,1578.95C1527.92,1509.6 1439.65,1559.39 1367.4,1565.41C1295.16,1571.43 1237.84,1566.13 1191.85,1535.67Z" style="fill:rgb(253,248,195);"/>
                <path d="M1221.11,1606.91C1221.11,1606.91 1284.84,1631.55 1435.83,1593.23C1601.31,1551.24 1688.8,1624.87 1688.8,1624.87C1688.8,1624.87 1612.27,1595.2 1479.01,1620.95C1381.01,1639.89 1320.88,1657.82 1221.11,1606.91Z" style="fill:rgb(253,248,195);"/>
                <path d="M1448.05,1691.52C1448.05,1691.52 1509.17,1613.22 1766.44,1676.88C1957.46,1724.14 2028.45,1679.96 2028.45,1679.96C2028.45,1679.96 1935.97,1781.49 1751.92,1719.26C1547.92,1650.29 1448.05,1691.52 1448.05,1691.52Z" style="fill:rgb(253,248,195);"/>
                <path d="M1891.75,1544.25C1891.75,1544.25 1975.45,1602.46 2126.16,1575.46C2325.31,1539.78 2371.62,1586 2371.62,1586C2371.62,1586 2314.88,1511.3 2169.13,1538.97C2009.33,1569.31 1891.75,1544.25 1891.75,1544.25Z" style="fill:rgb(253,248,195);"/>
                <path d="M2001.63,1517.12C2001.63,1517.12 2067.36,1510.84 2147.92,1495.62C2191.74,1487.33 2266.14,1464.46 2313.45,1463.91C2447.71,1462.37 2489.43,1507.1 2489.43,1507.1C2489.43,1507.1 2373.84,1477.05 2270.58,1498.63C2167.32,1520.2 2039.39,1531.76 2001.63,1517.12Z" style="fill:rgb(253,248,195);"/>
                <path d="M1443.5,1479.08C1443.5,1479.08 1246.55,1383.18 995.808,1523.67C995.808,1523.67 1096.37,1483.75 1221.98,1477.58C1347.59,1471.42 1400.25,1491.58 1400.25,1491.58L1443.5,1479.08Z" style="fill:rgb(253,248,195);"/>
                <path d="M1479.32,1240.16C1479.32,1240.16 1725.12,1214.05 1753.94,966.399C1753.94,966.399 1662.34,1163.15 1479.32,1240.16Z" style="fill:rgb(170,31,35);"/>
                <path d="M1933.74,775.336C1933.74,775.336 2088.72,1028.72 1953.1,1235.04C1953.1,1235.04 1900.24,1207.23 1774.75,1255.03C1774.75,1255.03 2041,1069.37 1933.74,775.336Z" style="fill:rgb(170,31,35);"/>
                <g transform="matrix(1,0,0,1,3.23215,0)">
                    <path d="M2160.57,1322.43C2160.57,1322.43 2111.12,1304.36 2034.31,1310.25L2024.65,1335.38C2024.65,1335.38 2100.27,1332.33 2143.2,1344.53L2160.57,1322.43Z" style="fill:rgb(226,199,134);"/>
                </g>
                <path d="M2135.58,1357.86C2135.58,1357.86 2114.39,1351.58 2095.84,1349.94C2076.84,1348.27 2021.59,1347.82 2021.59,1347.82C2021.59,1347.82 1975.22,1479.99 1937.08,1505.63C1937.08,1505.63 2047.7,1508.5 2135.58,1357.86Z" style="fill:rgb(226,199,134);"/>
                <g transform="matrix(1.95374,0,0,1.27777,-1272.27,-384.77)">
                    <path d="M1333.98,1385.19C1333.98,1385.19 1362.41,1405.22 1417.96,1409.85C1417.96,1409.85 1407.21,1413.16 1391.99,1411.59C1391.99,1411.59 1404.49,1415.74 1466.36,1416.59C1466.36,1416.59 1423.43,1422.48 1395.24,1417.43C1395.24,1417.43 1412.92,1422.8 1453.8,1424.1C1453.8,1424.1 1437.74,1428.88 1416.28,1426.73C1416.28,1426.73 1446.74,1434.06 1478.73,1437.01C1478.73,1437.01 1449.53,1442.08 1418.36,1437.19C1386.64,1432.22 1352.78,1417.01 1333.98,1385.19Z" style="fill:rgb(226,199,134);"/>
                </g>
                <path d="M2120.1,566.866C2120.1,566.866 2085.55,568.522 2023.82,541.52C1965.93,516.2 1945.69,478.942 1835.82,492.123C1835.82,492.123 1826.57,496.148 1843.88,495.603C1858.67,495.137 1881.54,497.377 1891.74,499.891C1933.76,510.249 1952.25,528.139 1905.35,533.644C1905.35,533.644 1934.86,531.395 1971.18,544.409C1981.04,547.941 2020.35,565.974 2045.28,569.544C2087.95,575.653 2120.1,566.866 2120.1,566.866Z" style="fill:rgb(170,31,35);"/>
            </g>
            <g transform="matrix(1.40669,0,0,0.994628,-385.631,-297.224)">
                <g transform="matrix(183.853,0,0,183.853,2214.03,2286.03)">
                </g>
                <text x="824.839px" y="2286.03px" style="font-family:'Montserrat-SemiBold', 'Montserrat';font-weight:600;font-size:183.853px;fill:rgb(253,248,195);">SE<tspan x="1063.11px " y="2286.03px ">G</tspan>EL<tspan x="1437.44px " y="2286.03px ">S</tspan>CHULE</text>
            </g>
            <g transform="matrix(1.50307,0,0,1.06277,-206.691,-245.604)">
                <g transform="matrix(183.853,0,0,183.853,1778.67,2286.03)">
                </g>
                <text x="824.839px" y="2286.03px" style="font-family:'Montserrat-SemiBold', 'Montserrat';font-weight:600;font-size:183.853px;fill:rgb(253,248,195);">AL<tspan x="1060.72px 1169.56px 1373.09px " y="2286.03px 2286.03px 2286.03px ">TWA</tspan>RP</text>
            </g>
            <g transform="matrix(2.16668,0,0,1.53199,91.2638,-5682.97)">
                <circle cx="395.881" cy="5088.51" r="15.594" style="fill:rgb(253,248,195);"/>
            </g>
            <g transform="matrix(2.16668,0,0,1.53199,1694.12,-5682.97)">
                <circle cx="395.881" cy="5088.51" r="15.594" style="fill:rgb(253,248,195);"/>
            </g>
        </g>
    </g>
</svg>
