<svg xmlns="http://www.w3.org/2000/svg" viewBox="0 0 419.25 595.5" font-family="'Playfair Display', Georgia, 'Times New Roman', serif">
  <defs>
    <style>
      @import url('https://fonts.googleapis.com/css2?family=Playfair+Display:ital,wght@0,400;0,700;0,800;1,400;1,700&amp;display=swap');
    </style>
  </defs>

  <!-- Background -->
  <rect width="419.25" height="595.5" fill="#ffffff"/>

  <!-- Top bar / branding -->
  <g transform="translate(30, 28)">
    <path d="M0 0 L8 0 L16 10 L24 0 L32 0 L32 4 L24 14 L16 4 L8 14 L0 4 Z" fill="#1a1a1a" opacity="0.85"/>
  </g>
  <text x="72" y="38" fill="#1a1a1a" font-size="13" font-weight="400" font-style="italic">sevenlayers.io</text>
  <text x="389" y="38" text-anchor="end" fill="#999" font-size="8.5" font-weight="400">integrations</text>

  <!-- Headline -->
  <text x="209.6" y="76" text-anchor="middle" fill="#1a1a1a" font-size="20" font-weight="800" letter-spacing="-0.5">Verbindet sich mit</text>
  <text x="209.6" y="98" text-anchor="middle" fill="#1a1a1a" font-size="20" font-weight="800" letter-spacing="-0.5">deinem ganzen Stack.</text>
  <text x="209.6" y="118" text-anchor="middle" fill="#777" font-size="7.5">Keine Insellösung. Deine KI dockt dort an, wo du schon arbeitest.</text>

  <!-- ============ SECTION: Kommunikation ============ -->
  <text x="30" y="145" fill="#1a1a1a" font-size="9" font-weight="700">Kommunikation</text>
  <line x1="30" y1="150" x2="389" y2="150" stroke="#eee" stroke-width="0.5"/>

  <!-- Slack -->
  <g transform="translate(30, 158)">
    <rect x="0" y="0" width="36" height="36" rx="8" fill="#4A154B"/>
    <g transform="translate(8, 8) scale(0.833)">
      <path fill="#fff" d="M5.042 15.165a2.528 2.528 0 0 1-2.52 2.523A2.528 2.528 0 0 1 0 15.165a2.528 2.528 0 0 1 2.522-2.52h2.52v2.52zm1.271 0a2.528 2.528 0 0 1 2.521-2.52 2.528 2.528 0 0 1 2.521 2.52v6.313A2.528 2.528 0 0 1 8.834 24a2.528 2.528 0 0 1-2.521-2.522v-6.313zM8.834 5.042a2.528 2.528 0 0 1-2.521-2.52A2.528 2.528 0 0 1 8.834 0a2.528 2.528 0 0 1 2.521 2.522v2.52H8.834zm0 1.271a2.528 2.528 0 0 1 2.521 2.521 2.528 2.528 0 0 1-2.521 2.521H2.522A2.528 2.528 0 0 1 0 8.834a2.528 2.528 0 0 1 2.522-2.521h6.312zM18.956 8.834a2.528 2.528 0 0 1 2.522-2.521A2.528 2.528 0 0 1 24 8.834a2.528 2.528 0 0 1-2.522 2.521h-2.522V8.834zm-1.27 0a2.528 2.528 0 0 1-2.523 2.521 2.528 2.528 0 0 1-2.52-2.521V2.522A2.528 2.528 0 0 1 15.165 0a2.528 2.528 0 0 1 2.523 2.522v6.312zM15.165 18.956a2.528 2.528 0 0 1 2.523 2.522A2.528 2.528 0 0 1 15.165 24a2.528 2.528 0 0 1-2.52-2.522v-2.522h2.52zm0-1.27a2.528 2.528 0 0 1-2.52-2.523 2.528 2.528 0 0 1 2.52-2.52h6.313A2.528 2.528 0 0 1 24 15.165a2.528 2.528 0 0 1-2.522 2.523h-6.313z"/>
    </g>
    <text x="18" y="48" text-anchor="middle" fill="#555" font-size="5.5">Slack</text>
  </g>

  <!-- WhatsApp -->
  <g transform="translate(100, 158)">
    <rect x="0" y="0" width="36" height="36" rx="8" fill="#25D366"/>
    <g transform="translate(6, 6) scale(1)">
      <path fill="#fff" d="M17.472 14.382c-.297-.149-1.758-.867-2.03-.967-.273-.099-.471-.148-.67.15-.197.297-.767.966-.94 1.164-.173.199-.347.223-.644.075-.297-.15-1.255-.463-2.39-1.475-.883-.788-1.48-1.761-1.653-2.059-.173-.297-.018-.458.13-.606.134-.133.298-.347.446-.52.149-.174.198-.298.298-.497.099-.198.05-.371-.025-.52-.075-.149-.669-1.612-.916-2.207-.242-.579-.487-.5-.669-.51-.173-.008-.371-.01-.57-.01-.198 0-.52.074-.792.372-.272.297-1.04 1.016-1.04 2.479 0 1.462 1.065 2.875 1.213 3.074.149.198 2.096 3.2 5.077 4.487.709.306 1.262.489 1.694.625.712.227 1.36.195 1.871.118.571-.085 1.758-.719 2.006-1.413.248-.694.248-1.289.173-1.413-.074-.124-.272-.198-.57-.347m-5.421 7.403h-.004a9.87 9.87 0 01-5.031-1.378l-.361-.214-3.741.982.998-3.648-.235-.374a9.86 9.86 0 01-1.51-5.26c.001-5.45 4.436-9.884 9.888-9.884 2.64 0 5.122 1.03 6.988 2.898a9.825 9.825 0 012.893 6.994c-.003 5.45-4.437 9.884-9.885 9.884m8.413-18.297A11.815 11.815 0 0012.05 0C5.495 0 .16 5.335.157 11.892c0 2.096.547 4.142 1.588 5.945L.057 24l6.305-1.654a11.882 11.882 0 005.683 1.448h.005c6.554 0 11.89-5.335 11.893-11.893a11.821 11.821 0 00-3.48-8.413Z"/>
    </g>
    <text x="18" y="48" text-anchor="middle" fill="#555" font-size="5.5">WhatsApp</text>
  </g>

  <!-- Telegram -->
  <g transform="translate(170, 158)">
    <rect x="0" y="0" width="36" height="36" rx="8" fill="#26A5E4"/>
    <g transform="translate(6, 6) scale(1)">
      <path fill="#fff" d="M11.944 0A12 12 0 0 0 0 12a12 12 0 0 0 12 12 12 12 0 0 0 12-12A12 12 0 0 0 12 0a12 12 0 0 0-.056 0zm4.962 7.224c.1-.002.321.023.465.14a.506.506 0 0 1 .171.325c.016.093.036.306.02.472-.18 1.898-.962 6.502-1.36 8.627-.168.9-.499 1.201-.82 1.23-.696.065-1.225-.46-1.9-.902-1.056-.693-1.653-1.124-2.678-1.8-1.185-.78-.417-1.21.258-1.91.177-.184 3.247-2.977 3.307-3.23.007-.032.014-.15-.056-.212s-.174-.041-.249-.024c-.106.024-1.793 1.14-5.061 3.345-.479.33-.913.49-1.302.48-.428-.008-1.252-.241-1.865-.44-.752-.245-1.349-.374-1.297-.789.027-.216.325-.437.893-.663 3.498-1.524 5.83-2.529 6.998-3.014 3.332-1.386 4.025-1.627 4.476-1.635z"/>
    </g>
    <text x="18" y="48" text-anchor="middle" fill="#555" font-size="5.5">Telegram</text>
  </g>

  <!-- SMS -->
  <g transform="translate(240, 158)">
    <rect x="0" y="0" width="36" height="36" rx="8" fill="#43B581"/>
    <g transform="translate(6, 7) scale(0.92)">
      <path fill="#fff" d="M20 2H4c-1.1 0-2 .9-2 2v18l4-4h14c1.1 0 2-.9 2-2V4c0-1.1-.9-2-2-2zm0 14H5.17L4 17.17V4h16v12zM7 9h2v2H7zm4 0h2v2h-2zm4 0h2v2h-2z"/>
    </g>
    <text x="18" y="48" text-anchor="middle" fill="#555" font-size="5.5">SMS</text>
  </g>

  <!-- iMessage -->
  <g transform="translate(310, 158)">
    <rect x="0" y="0" width="36" height="36" rx="8" fill="#34C759"/>
    <g transform="translate(6, 7) scale(0.92)">
      <path fill="#fff" d="M12 2C6.477 2 2 5.813 2 10.5c0 2.55 1.352 4.845 3.5 6.4V22l4.4-2.45c.68.13 1.38.2 2.1.2 5.523 0 10-3.813 10-8.5S17.523 2 12 2z"/>
    </g>
    <text x="18" y="48" text-anchor="middle" fill="#555" font-size="5.5">iMessage</text>
  </g>

  <!-- ============ SECTION: CRM &amp; Marketing ============ -->
  <text x="30" y="228" fill="#1a1a1a" font-size="9" font-weight="700">CRM &amp; Marketing</text>
  <line x1="30" y1="233" x2="389" y2="233" stroke="#eee" stroke-width="0.5"/>

  <!-- ActiveCampaign -->
  <g transform="translate(30, 241)">
    <rect x="0" y="0" width="36" height="36" rx="8" fill="#356AE6"/>
    <g transform="translate(8, 8) scale(0.833)">
      <path fill="#fff" d="M16.015 7.025L7.09 12.06l8.925 5.035V7.025zM22.91 3.97L7.09 12.06l15.82 8.09V3.97zM1.09 12.06l5.16-2.9v5.8l-5.16-2.9z"/>
    </g>
    <text x="18" y="48" text-anchor="middle" fill="#555" font-size="5">ActiveCampaign</text>
  </g>

  <!-- HubSpot -->
  <g transform="translate(100, 241)">
    <rect x="0" y="0" width="36" height="36" rx="8" fill="#FF7A59"/>
    <g transform="translate(7, 5) scale(0.92)">
      <path fill="#fff" d="M18.164 7.93V5.084a2.198 2.198 0 001.267-1.984v-.066A2.2 2.2 0 0017.237.84h-.067a2.2 2.2 0 00-2.193 2.193v.067c0 .852.49 1.588 1.202 1.95v2.882a6.26 6.26 0 00-3.465 1.787l-7.677-5.967a2.18 2.18 0 00.328-1.142A2.213 2.213 0 003.152.397 2.213 2.213 0 00.94 2.61a2.213 2.213 0 002.212 2.212c.475 0 .912-.158 1.272-.416l7.595 5.906a6.265 6.265 0 00-.76 3.002c0 1.165.32 2.254.873 3.191l-2.477 2.477a2.018 2.018 0 00-.618-.103 2.044 2.044 0 100 4.088 2.044 2.044 0 000-4.088c.007 0 .012-.005.018-.005l2.43-2.43a6.262 6.262 0 003.703 1.376v.005a6.27 6.27 0 005.558-3.403 6.254 6.254 0 00-4.582-9.292zM17.17 17.146a3.745 3.745 0 01-3.754-3.737 3.745 3.745 0 013.754-3.737 3.745 3.745 0 013.753 3.737 3.745 3.745 0 01-3.753 3.737z"/>
    </g>
    <text x="18" y="48" text-anchor="middle" fill="#555" font-size="5.5">HubSpot</text>
  </g>

  <!-- ============ SECTION: Automation ============ -->
  <text x="30" y="311" fill="#1a1a1a" font-size="9" font-weight="700">Automation</text>
  <line x1="30" y1="316" x2="389" y2="316" stroke="#eee" stroke-width="0.5"/>

  <!-- n8n -->
  <g transform="translate(30, 324)">
    <rect x="0" y="0" width="36" height="36" rx="8" fill="#EA4B71"/>
    <g transform="translate(7, 8) scale(0.9)">
      <path fill="#fff" d="M12.132.91a2.25 2.25 0 00-1.578.656L.656 11.464a2.25 2.25 0 000 3.182l9.898 9.898a2.25 2.25 0 003.182 0l9.608-9.608a2.25 2.25 0 000-3.182L13.71 1.566A2.25 2.25 0 0012.132.91zm-.177 5.705a1.47 1.47 0 011.47 1.47v1.23h1.23a1.47 1.47 0 010 2.94h-1.23v1.23a1.47 1.47 0 01-2.94 0v-1.23h-1.23a1.47 1.47 0 010-2.94h1.23v-1.23a1.47 1.47 0 011.47-1.47z"/>
    </g>
    <text x="18" y="48" text-anchor="middle" fill="#555" font-size="5.5">n8n</text>
  </g>

  <!-- Zapier -->
  <g transform="translate(100, 324)">
    <rect x="0" y="0" width="36" height="36" rx="8" fill="#FF4A00"/>
    <g transform="translate(6, 6) scale(1)">
      <path fill="#fff" d="M15.088 13.817h4.502l-1.953 4.86-4.86 1.953v-4.502L15.088 13.817zm-6.176 0L6.601 16.128l-1.953-4.86 1.953-4.86 4.86-1.953v4.502L8.912 13.817zm6.176-3.634L12.777 6.323 15.088.463 19.59 2.416l1.953 4.86H17.04l-2.311 2.907zm-6.176 0H4.648l1.953-4.86L11.461.463l2.311 5.86L11.461 9.23 8.912 10.183z"/>
    </g>
    <text x="18" y="48" text-anchor="middle" fill="#555" font-size="5.5">Zapier</text>
  </g>

  <!-- Make -->
  <g transform="translate(170, 324)">
    <rect x="0" y="0" width="36" height="36" rx="8" fill="#6D00CC"/>
    <g transform="translate(6, 6) scale(1)">
      <path fill="#fff" d="M5.23 4.005a2.116 2.116 0 100 4.233 2.116 2.116 0 000-4.233zm6.77 0a2.116 2.116 0 100 4.233 2.116 2.116 0 000-4.233zm6.77 0a2.116 2.116 0 100 4.233 2.116 2.116 0 000-4.233zM5.23 9.884a2.116 2.116 0 100 4.232 2.116 2.116 0 000-4.232zm6.77 0a2.116 2.116 0 100 4.232 2.116 2.116 0 000-4.232zm6.77 0a2.116 2.116 0 100 4.232 2.116 2.116 0 000-4.232zM5.23 15.762a2.116 2.116 0 100 4.233 2.116 2.116 0 000-4.233zm6.77 0a2.116 2.116 0 100 4.233 2.116 2.116 0 000-4.233zm6.77 0a2.116 2.116 0 100 4.233 2.116 2.116 0 000-4.233z"/>
    </g>
    <text x="18" y="48" text-anchor="middle" fill="#555" font-size="5.5">Make</text>
  </g>

  <!-- ============ SECTION: Plattformen ============ -->
  <text x="30" y="394" fill="#1a1a1a" font-size="9" font-weight="700">Plattformen</text>
  <line x1="30" y1="399" x2="389" y2="399" stroke="#eee" stroke-width="0.5"/>

  <!-- Microsoft -->
  <g transform="translate(30, 407)">
    <rect x="0" y="0" width="36" height="36" rx="8" fill="#fff" stroke="#e5e5e5" stroke-width="0.5"/>
    <g transform="translate(8, 8)">
      <rect x="0" y="0" width="9" height="9" fill="#F25022"/>
      <rect x="11" y="0" width="9" height="9" fill="#7FBA00"/>
      <rect x="0" y="11" width="9" height="9" fill="#00A4EF"/>
      <rect x="11" y="11" width="9" height="9" fill="#FFB900"/>
    </g>
    <text x="18" y="48" text-anchor="middle" fill="#555" font-size="5.5">Microsoft</text>
  </g>

  <!-- Google -->
  <g transform="translate(100, 407)">
    <rect x="0" y="0" width="36" height="36" rx="8" fill="#fff" stroke="#e5e5e5" stroke-width="0.5"/>
    <g transform="translate(6, 6) scale(1)">
      <path fill="#4285F4" d="M12.48 10.92v3.28h7.84c-.24 1.84-.853 3.187-1.787 4.133-1.147 1.147-2.933 2.4-6.053 2.4-4.827 0-8.6-3.893-8.6-8.72s3.773-8.72 8.6-8.72c2.6 0 4.507 1.027 5.907 2.347l2.307-2.307C18.747 1.44 16.133 0 12.48 0 5.867 0 .307 5.387.307 12s5.56 12 12.173 12c3.573 0 6.267-1.173 8.373-3.36 2.16-2.16 2.84-5.213 2.84-7.667 0-.76-.053-1.467-.173-2.053H12.48z"/>
    </g>
    <text x="18" y="48" text-anchor="middle" fill="#555" font-size="5.5">Google</text>
  </g>

  <!-- ============ SECTION: Frontier Models ============ -->
  <text x="30" y="477" fill="#1a1a1a" font-size="9" font-weight="700">Frontier Models</text>
  <line x1="30" y1="482" x2="389" y2="482" stroke="#eee" stroke-width="0.5"/>

  <!-- OpenAI -->
  <g transform="translate(30, 490)">
    <rect x="0" y="0" width="36" height="36" rx="8" fill="#000"/>
    <g transform="translate(6, 6) scale(1)">
      <path fill="#fff" d="M22.282 9.821a5.985 5.985 0 0 0-.516-4.91 6.046 6.046 0 0 0-6.51-2.9A6.065 6.065 0 0 0 4.981 4.18a5.985 5.985 0 0 0-3.998 2.9 6.046 6.046 0 0 0 .743 7.097 5.98 5.98 0 0 0 .51 4.911 6.051 6.051 0 0 0 6.515 2.9A5.985 5.985 0 0 0 13.26 24a6.056 6.056 0 0 0 5.772-4.206 5.99 5.99 0 0 0 3.997-2.9 6.056 6.056 0 0 0-.747-7.073zM13.26 22.43a4.476 4.476 0 0 1-2.876-1.04l.141-.081 4.779-2.758a.795.795 0 0 0 .392-.681v-6.737l2.02 1.168a.071.071 0 0 1 .038.052v5.583a4.504 4.504 0 0 1-4.494 4.494zM3.6 18.304a4.47 4.47 0 0 1-.535-3.014l.142.085 4.783 2.759a.771.771 0 0 0 .78 0l5.843-3.369v2.332a.08.08 0 0 1-.033.062L9.74 19.95a4.5 4.5 0 0 1-6.14-1.646zM2.34 7.896a4.485 4.485 0 0 1 2.366-1.973V11.6a.766.766 0 0 0 .388.676l5.815 3.355-2.02 1.168a.076.076 0 0 1-.071 0l-4.83-2.786A4.504 4.504 0 0 1 2.34 7.872zm16.597 3.855l-5.843-3.368L15.115 7.215a.076.076 0 0 1 .071 0l4.83 2.791a4.494 4.494 0 0 1-.676 8.105v-5.678a.79.79 0 0 0-.403-.682zm2.01-3.023l-.141-.085-4.774-2.782a.776.776 0 0 0-.785 0L9.409 9.23V6.897a.066.066 0 0 1 .028-.061l4.83-2.787a4.5 4.5 0 0 1 6.68 4.66zM8.307 12.863l-2.02-1.164a.08.08 0 0 1-.038-.057V6.074a4.5 4.5 0 0 1 7.376-3.453l-.142.08L8.704 5.46a.795.795 0 0 0-.393.681zm1.097-2.362l2.602-1.501 2.603 1.501v3.003l-2.603 1.502-2.602-1.502z"/>
    </g>
    <text x="18" y="48" text-anchor="middle" fill="#555" font-size="5.5">OpenAI</text>
  </g>

  <!-- Anthropic / Claude -->
  <g transform="translate(80, 490)">
    <rect x="0" y="0" width="36" height="36" rx="8" fill="#D4A27F"/>
    <g transform="translate(8, 8) scale(0.833)">
      <path fill="#fff" d="M13.827 3.52h-3.603L3.022 20.48h3.603l1.404-3.36h8.942l1.404 3.36h3.603L13.827 3.52zm-4.013 10.56L12 7.68l2.186 6.4H9.814z"/>
    </g>
    <text x="18" y="48" text-anchor="middle" fill="#555" font-size="5.5">Claude</text>
  </g>

  <!-- Gemini -->
  <g transform="translate(130, 490)">
    <rect x="0" y="0" width="36" height="36" rx="8" fill="#1A73E8"/>
    <g transform="translate(6, 6) scale(1)">
      <path fill="#fff" d="M12 0C5.37 0 0 5.37 0 12s5.37 12 12 12 12-5.37 12-12S18.63 0 12 0zm0 2c5.523 0 10 4.477 10 10a9.96 9.96 0 0 1-3.11 7.246A9.953 9.953 0 0 1 12 22C6.477 22 2 17.523 2 12S6.477 2 12 2zm.09 3.347c-3.68.04-6.743 2.987-6.932 6.662-.098 1.91.603 3.748 1.923 5.068a6.87 6.87 0 0 0 4.919 2.075 6.87 6.87 0 0 0 4.919-2.075 6.87 6.87 0 0 0 1.923-5.068c-.19-3.675-3.252-6.623-6.932-6.662z"/>
    </g>
    <text x="18" y="48" text-anchor="middle" fill="#555" font-size="5.5">Gemini</text>
  </g>

  <!-- OpenClaw -->
  <g transform="translate(180, 490)">
    <rect x="0" y="0" width="42" height="36" rx="8" fill="#1a1a1a"/>
    <text x="21" y="17" text-anchor="middle" fill="#8B5CF6" font-size="7" font-weight="700">OPEN</text>
    <text x="21" y="27" text-anchor="middle" fill="#fff" font-size="8" font-weight="700">CLAW</text>
    <text x="21" y="48" text-anchor="middle" fill="#555" font-size="5.5">OpenClaw</text>
  </g>

  <!-- Open Source -->
  <text x="250" y="477" fill="#1a1a1a" font-size="9" font-weight="700">Open Source</text>
  <line x1="250" y1="482" x2="389" y2="482" stroke="#eee" stroke-width="0.5"/>

  <!-- Llama / Meta -->
  <g transform="translate(250, 490)">
    <rect x="0" y="0" width="36" height="36" rx="8" fill="#0668E1"/>
    <g transform="translate(5, 6) scale(1.08)">
      <path fill="#fff" d="M12 10.203c-1.857 0-3.64.742-4.95 2.062C5.736 13.584 5 15.38 5 17.25h2.25c0-1.24.49-2.43 1.365-3.31A4.65 4.65 0 0 1 12 12.57a4.65 4.65 0 0 1 3.385 1.37A4.71 4.71 0 0 1 16.75 17.25H19c0-1.87-.736-3.666-2.05-4.985A6.98 6.98 0 0 0 12 10.203zm0-4.078c-2.916 0-5.714 1.165-7.778 3.24A11.09 11.09 0 0 0 1 17.25h2.25c0-2.335.924-4.576 2.568-6.227A8.73 8.73 0 0 1 12 8.437a8.73 8.73 0 0 1 6.182 2.586A8.85 8.85 0 0 1 20.75 17.25H23c0-2.937-1.162-5.753-3.222-7.825A10.98 10.98 0 0 0 12 6.125z"/>
    </g>
    <text x="18" y="48" text-anchor="middle" fill="#555" font-size="5.5">Llama</text>
  </g>

  <!-- Mistral -->
  <g transform="translate(300, 490)">
    <rect x="0" y="0" width="36" height="36" rx="8" fill="#F54E42"/>
    <g transform="translate(8, 8)">
      <rect x="0" y="0" width="5" height="5" fill="#fff"/>
      <rect x="15" y="0" width="5" height="5" fill="#fff"/>
      <rect x="0" y="5" width="5" height="5" fill="#fff"/>
      <rect x="5" y="5" width="5" height="5" fill="#fff"/>
      <rect x="10" y="5" width="5" height="5" fill="#fff"/>
      <rect x="15" y="5" width="5" height="5" fill="#fff"/>
      <rect x="0" y="10" width="5" height="5" fill="#fff"/>
      <rect x="10" y="10" width="5" height="5" fill="#fff"/>
      <rect x="0" y="15" width="5" height="5" fill="#fff"/>
      <rect x="5" y="15" width="5" height="5" fill="#fff"/>
      <rect x="10" y="15" width="5" height="5" fill="#fff"/>
      <rect x="15" y="15" width="5" height="5" fill="#fff"/>
    </g>
    <text x="18" y="48" text-anchor="middle" fill="#555" font-size="5.5">Mistral</text>
  </g>

  <!-- DeepSeek -->
  <g transform="translate(350, 490)">
    <rect x="0" y="0" width="36" height="36" rx="8" fill="#4D6BFE"/>
    <g transform="translate(6, 8) scale(1)">
      <path fill="#fff" d="M12 2C6.48 2 2 6.02 2 10.94c0 2.73 1.35 5.17 3.46 6.82-.1.92-.56 3.3-3.08 5.24 2.63-.22 5.2-1.24 6.84-2.64.89.22 1.82.34 2.78.34 5.52 0 10-4.02 10-8.94V11.7C22 6.78 17.52 2.76 12 2z"/>
    </g>
    <text x="18" y="48" text-anchor="middle" fill="#555" font-size="5.5">DeepSeek</text>
  </g>

  <!-- Bottom tagline -->
  <line x1="30" y1="550" x2="389" y2="550" stroke="#ddd" stroke-width="0.5"/>
  <text x="209.6" y="567" text-anchor="middle" fill="#1a1a1a" font-size="9" font-weight="700" font-style="italic">Kein Umzug. Kein Vendor Lock-in.</text>
  <text x="209.6" y="580" text-anchor="middle" fill="#888" font-size="7">Deine KI arbeitet mit dem, was du schon nutzt — und wächst mit dir.</text>

  <!-- Footer -->
  <text x="209.6" y="592" text-anchor="middle" fill="#bbb" font-size="5.5">hello@sevenlayers.io · www.sevenlayers.io · +49 151 404 27 103</text>

</svg>