<svg width="180" height="180" viewBox="0 0 180 180" fill="none" xmlns="http://www.w3.org/2000/svg">
  <!-- Segelschule Altwarp boat logo on Flaschengrün background -->
  <rect width="180" height="180" rx="37" fill="#1E3926"/>
  <g transform="translate(12, 8) scale(0.145)">
    <!-- Semicircle arcs (cream) -->
    <path d="M851.7,597.6c-.9,2-19.2-1.8-19.2-1.8,20.5-43.2,31.2-90.5,31.2-138.3,0-109.5-55.6-211.5-147.7-270.9,0,0,26-4.2,27.4-3.1,86.7,63.9,138.4,165.4,138.4,274s-10.3,96.1-30.2,140.1Z" fill="#FFF6C3"/>
    <path d="M544.4,117.2c1.8,0,2.5,18.1,1,18.1-1.4,0-2.7,0-3.9,0-177.9,0-322.2,144.4-322.2,322.2s9.8,91.2,28.7,133c.8,1.8-16.2,8.1-17.4,5.5-19.4-43.6-29.5-90.8-29.5-138.5,0-187.9,152.5-340.4,340.4-340.4s1.9,0,2.9,0Z" fill="#FFF6C3"/>
    <!-- Red sails -->
    <path d="M681.6,520s-2.9,4.3-22.7-12.8c-16.8-14.4-48.3-26.5-135.9,14.6,0,0,83.4-75.3,74.7-218.2-2.1-34.2-5.9-78-21.4-118.9,0,0,188.3,121.4,105.4,335.4Z" fill="#DB2E26"/>
    <path d="M565.4,193s47,222.7-77.3,344.6c0,0-15.2-21.8-74.9-15.8-77.1,7.8-87.4-12.7-87.4-12.7,0,0,134.1-5.8,212.2-200.6,13.9-34.8,24.7-70.7,27.4-115.5Z" fill="#DB2E26"/>
    <!-- Flag/pennant -->
    <path d="M569.6,177.5l-4.9-60.4s36.9-17.2,86,9c49.1,26.3,50.3,26.9,93.3,24,47.2-3.2,62.9,15.6,77.2,18,14.4,2.4-2.7,6.5-22.1,1.9-19.5-4.6-16.1-11.3-46-6.5-43.7,7-49.7,13.6-98.2-5.7-48.5-19.2-80.7,11.6-85.2,19.6Z" fill="#DB2E26"/>
    <!-- Boat hull and waves (cream) -->
    <path d="M338.1,572.1s22.1,15.1,156.5-14.6c134.4-29.7,177.8-41.8,256.2-19.9l-11.7,14.3s-19.9-6.6-58.6-4.5l-2.9,6s40.5-.2,56.3,5.1c0,0-39.9,74.5-106.5,73-66.6-1.5-73.7-13.2-119.8-19.6-56.3-7.8-137.5-3.2-169.6-39.9ZM645.1,607.3c4.7.5,32-67.5,22.7-69.7-9.8-2.3-28.3,69.2-22.7,69.7ZM642.2,546.1c-167.9,35.7-263.3,38.1-263.3,38.1,21.9,2.4,90.1-2.4,131.5-8.9,41.4-6.5,130.5-19.7,130.5-19.7l1.4-9.5Z" fill="#FFF6C3"/>
    <path d="M267.9,646.4s25.9,17.4,96.3-5.9c70.4-23.3,117.1-24.5,182,4.5,65,29,96.6,42.3,156.4,36.6,59.8-5.7,33.6-1.9-17.3,15.2-50.9,17.1-92.7,5.2-172.2-29-79.4-34.2-123-9.7-158.7-6.7-35.7,3-64,.4-86.7-14.7Z" fill="#FFF6C3"/>
    <path d="M282.4,681.6s31.5,12.2,106-6.8c81.7-20.7,124.9,15.6,124.9,15.6,0,0-37.8-14.6-103.6-1.9-48.4,9.4-78.1,18.2-127.3-6.9Z" fill="#FFF6C3"/>
    <path d="M394.4,723.3s30.2-38.7,157.2-7.2c94.3,23.3,129.4,1.5,129.4,1.5,0,0-45.7,50.1-136.5,19.4-100.7-34.1-150-13.7-150-13.7Z" fill="#FFF6C3"/>
    <path d="M613.5,650.6s41.3,28.7,115.7,15.4c98.3-17.6,121.2,5.2,121.2,5.2,0,0-28-36.9-100-23.2-78.9,15-137,2.6-137,2.6Z" fill="#FFF6C3"/>
    <path d="M667.7,637.2s32.5-3.1,72.2-10.6c21.6-4.1,58.4-15.4,81.7-15.7,66.3-.8,86.9,21.3,86.9,21.3,0,0-57.1-14.8-108.1-4.2-51,10.6-114.1,16.4-132.8,9.1Z" fill="#FFF6C3"/>
    <path d="M392.2,618.4s-97.2-47.3-221,22c0,0,49.7-19.7,111.7-22.8,62-3,88,6.9,88,6.9l21.4-6.2Z" fill="#FFF6C3"/>
    <!-- Dark red accents -->
    <path d="M409.8,500.5s121.4-12.9,135.6-135.2c0,0-45.2,97.1-135.6,135.2Z" fill="#AA2023"/>
    <path d="M634.2,271s76.5,125.1,9.6,227c0,0-26.1-13.7-88.1,9.9,0,0,131.5-91.7,78.5-236.8Z" fill="#AA2023"/>
    <!-- Sand detail elements -->
    <path d="M747.8,541.1s-24.4-8.9-62.3-6l-4.8,12.4s37.3-1.5,58.5,4.5l8.6-10.9Z" fill="#E2C786"/>
    <path d="M733.9,558.6s-10.5-3.1-19.6-3.9c-9.4-.8-36.7-1-36.7-1,0,0-22.9,65.3-41.7,77.9,0,0,54.6,1.4,98-73Z" fill="#E2C786"/>
    <path d="M338.1,572.1s27.4,12.6,81,15.6c0,0-10.4,2.1-25.1,1.1,0,0,12.1,2.6,71.7,3.2,0,0-41.4,3.7-68.6.5,0,0,17.1,3.4,56.5,4.2,0,0-15.5,3-36.2,1.7,0,0,29.4,4.6,60.2,6.5,0,0-28.2,3.2-58.2.1-30.6-3.1-63.3-12.7-81.4-32.8Z" fill="#E2C786"/>
    <path d="M726.2,168s-17.1.8-47.5-12.5c-28.6-12.5-38.6-30.9-92.8-24.4,0,0-4.6,2,4,1.7,7.3-.2,18.6.9,23.6,2.1,20.7,5.1,29.9,13.9,6.7,16.7,0,0,14.6-1.1,32.5,5.3,4.9,1.7,24.3,10.6,36.6,12.4,21.1,3,36.9-1.3,36.9-1.3Z" fill="#AA2023"/>
  </g>
</svg>
