<svg width="691" height="348" viewBox="0 0 691 348" fill="none" xmlns="http://www.w3.org/2000/svg">
<path d="M13.1001 258.398V90.3984L345.6 13.3984L678.1 90.3984V258.398L345.6 334.898L13.1001 258.398Z" fill="#245876"/>
<path d="M345.6 26.3985L665.6 100.398V248.398L345.6 321.898L25.6001 248.398V100.398L345.6 26.3985ZM345.6 0.898438L340.1 2.39845L20.1002 76.3985L0.600098 80.8984V100.898V248.398V268.398L20.1002 272.898L340.1 346.399L345.6 347.898L351.1 346.399L671.1 272.898L690.6 268.398V248.398V100.398V80.3984L671.1 75.8984L351.1 1.89842L345.6 0.898438Z" fill="white"/>
<path d="M345.6 26.3985L665.6 100.398V248.398L345.6 321.898L25.6001 248.398V100.398L345.6 26.3985ZM345.6 10.8984L342.1 11.8984L22.1003 85.8984L10.6001 88.3984V100.398V248.398V260.398L22.1003 262.898L342.1 336.398L345.6 337.398L349.1 336.398L669.1 262.898L680.6 260.398V248.398V100.398V88.3984L669.1 85.8984L349.1 11.8984L345.6 10.8984Z" fill="#245876"/>
<path d="M345.6 36.8964L655.6 108.396V240.396L345.6 311.397L35.6001 240.396V108.396L345.6 36.8964ZM345.6 26.3965L25.6001 100.396V248.396L345.6 321.896L665.6 248.396V100.396L345.6 26.3965Z" fill="white"/>
<g opacity="0.2">
<path d="M345.6 347.9L351.1 346.4L671.1 272.9L690.6 268.4V248.4V100.4V80.4004L671.1 75.9004L351.1 1.90037L345.6 0.400391V347.9Z" fill="white"/>
</g>
<path d="M266.1 233.398C271.6 233.398 272.6 236.898 272.6 240.398V241.398H269.1V240.398C269.1 239.398 269.1 236.898 266.1 236.898C263.6 236.898 263.1 238.898 263.1 239.898C263.1 241.898 264.6 242.898 266.1 243.898C270.1 245.398 272.1 246.898 272.1 251.398C272.1 255.398 270.6 258.398 265.6 258.398C260.1 258.398 259.1 254.898 259.1 251.398V249.398H262.6V251.398C262.6 252.398 262.6 254.898 265.6 254.898C268.1 254.898 268.6 252.898 268.6 251.898C268.6 250.398 268.1 248.898 265.6 247.898C261.6 246.398 259.6 244.898 259.6 240.398C259.6 236.398 261.6 233.398 266.1 233.398Z" fill="white"/>
<path d="M291.1 233.896V237.396H286.601V254.396H291.1V257.896H278.101V254.396H282.6V237.396H278.101V233.896H291.1Z" fill="white"/>
<path d="M299.6 233.896L305.1 247.896V233.896H308.6V257.896H305.1L299.6 243.896V257.896H296.1V233.896H299.6Z" fill="white"/>
<path d="M320.6 233.398C325.6 233.398 327.1 237.398 327.1 240.398V241.398H323.6V240.398C323.6 239.398 323.6 236.898 320.6 236.898C317.6 236.898 317.6 239.398 317.6 240.398V251.398C317.6 252.398 317.6 254.898 320.6 254.898C323.6 254.898 323.6 252.398 323.6 251.398V250.398H327.1V251.398C327.1 255.398 325.1 258.398 320.6 258.398C315.6 258.398 314.1 254.398 314.1 251.398V240.398C314.1 236.398 316.6 233.398 320.6 233.398Z" fill="white"/>
<path d="M332.6 233.896H345.599V237.396H336.6V243.896H344.6V247.396H336.6V253.896H345.599V257.396H332.6V233.896Z" fill="white"/>
<path d="M379.6 251.398V257.898H366.6V255.398C366.6 250.398 370.1 247.898 373.1 244.898C374.1 243.898 376.1 241.898 376.1 239.898C376.1 238.398 376.1 236.898 373.1 236.898C370.1 236.898 370.1 239.398 370.1 240.398V241.898H366.6V240.398C366.6 236.398 368.6 233.398 373.1 233.398C377.6 233.398 379.6 235.898 379.6 240.398C379.6 242.898 378.6 244.898 375.6 247.398C373.1 249.898 370.1 251.898 370.1 254.398H376.1V251.398H379.6Z" fill="white"/>
<path d="M397.6 240.398V251.398C397.6 255.398 395.6 258.398 391.1 258.398C386.6 258.398 384.6 255.398 384.6 251.398V240.398C384.6 236.398 386.6 233.398 391.1 233.398C395.6 233.398 397.6 236.398 397.6 240.398ZM388.6 240.398V246.898L394.6 239.398C394.6 238.398 393.6 236.898 391.6 236.898C388.6 236.898 388.6 239.398 388.6 240.398ZM394.1 251.398V244.898L388.6 252.398C388.6 253.398 389.1 254.898 391.6 254.898C394.1 254.898 394.1 252.398 394.1 251.398Z" fill="white"/>
<path d="M416.1 251.398V257.898H403.1V255.398C403.1 250.398 406.6 247.898 409.6 244.898C410.6 243.898 412.6 241.898 412.6 239.898C412.6 238.398 412.6 236.898 409.6 236.898C406.6 236.898 406.6 239.398 406.6 240.398V241.898H403.1V240.398C403.1 236.398 405.1 233.398 409.6 233.398C414.1 233.398 416.1 235.898 416.1 240.398C416.1 242.898 415.1 244.898 412.1 247.398C409.6 249.898 406.6 251.898 406.6 254.398H412.6V251.398H416.1Z" fill="white"/>
<path d="M421.601 254.396H426.1V240.396H421.601V237.396C424.101 237.396 426.1 236.396 426.1 233.896H430.101V254.396H434.6V257.896H421.601V254.396Z" fill="white"/>
<path d="M69.0986 167.402C69.0986 158.402 73.5986 152.402 83.0986 152.402C95.0986 152.402 97.0988 160.402 97.0988 167.402V168.402H89.0986V167.402C89.0986 165.402 89.0986 159.902 83.0986 159.902C77.0986 159.902 77.0988 165.402 77.0988 167.402V190.902C77.0988 192.902 77.0986 198.402 83.0986 198.402C89.0986 198.402 89.0986 192.902 89.0986 190.902V183.402H83.0986V175.402H97.0988V191.402C97.0988 200.402 92.5986 206.402 83.0986 206.402C71.5986 206.402 69.0986 198.402 69.0986 191.402V167.402Z" fill="white"/>
<path d="M109.599 204.9V152.9H122.599C133.599 152.9 138.599 159.4 138.599 168.9C138.599 175.4 136.599 180.4 130.599 182.9L138.099 205.9H129.599L122.599 184.9H117.599V205.9H110.099V204.9H109.599ZM117.099 175.9H122.099C129.099 175.9 129.599 170.4 129.599 167.9C129.599 165.4 129.099 159.9 122.099 159.9H117.099V175.9Z" fill="white"/>
<path d="M150.099 190.402V152.402H158.099V190.402C158.099 192.402 158.099 197.902 164.099 197.902C170.099 197.902 170.099 192.402 170.099 190.402V152.402H178.099V190.402C178.099 199.402 173.599 205.402 164.099 205.402C154.599 205.402 150.099 199.902 150.099 190.402ZM153.599 139.902H161.099V147.902H153.599V139.902ZM166.599 148.402V140.402H174.099V148.402H166.599Z" fill="white"/>
<path d="M198.099 152.402L210.099 183.402V152.402H218.099V204.402H210.599L198.599 173.402V204.402H190.599V152.402H198.099Z" fill="white"/>
<path d="M230.599 152.402H243.599C254.599 152.402 258.599 159.402 258.599 166.902V189.902C258.599 198.902 252.599 204.402 243.599 204.402H230.599V152.402ZM238.599 196.902H244.099C250.599 196.902 251.099 191.402 251.099 189.902V167.402C251.099 165.402 250.099 160.402 244.099 160.402H238.599V196.902Z" fill="white"/>
<path d="M271.099 190.402V152.402H279.099V190.402C279.099 192.402 279.099 197.902 285.099 197.902C291.099 197.902 291.099 192.402 291.099 190.402V152.402H299.099V190.402C299.099 199.402 294.599 205.402 285.099 205.402C275.599 205.402 271.099 199.902 271.099 190.402Z" fill="white"/>
<path d="M319.599 152.402L331.599 183.402V152.402H339.599V204.402H331.599L319.599 173.402V204.402H311.599V152.402H319.599Z" fill="white"/>
<path d="M351.599 167.402C351.599 158.402 356.099 152.402 365.599 152.402C377.599 152.402 379.599 160.402 379.599 167.402V168.402H371.599V167.402C371.599 165.402 371.599 159.902 365.599 159.902C359.599 159.902 359.599 165.402 359.599 167.402V190.902C359.599 192.902 359.599 198.402 365.599 198.402C371.599 198.402 371.599 192.902 371.599 190.902V183.402H365.599V175.402H379.599V191.402C379.599 200.402 375.099 206.402 365.599 206.402C354.099 206.402 351.599 198.402 351.599 191.402V167.402Z" fill="white"/>
<path d="M406.099 151.406C417.599 151.406 420.099 159.406 420.099 166.406V167.906H412.599V166.406C412.599 163.906 412.599 158.906 406.099 158.906C400.099 158.906 400.099 163.906 400.099 165.406V165.906C400.099 170.406 402.599 172.406 407.099 174.406C415.099 178.406 420.599 180.406 420.599 190.906C420.599 199.406 416.599 205.406 406.599 205.406C395.099 205.406 392.599 197.406 392.599 190.406V185.406H400.099V190.406C400.099 192.906 400.099 197.906 406.599 197.906C412.599 197.906 412.599 192.906 412.599 191.406V190.906C412.599 186.906 411.099 184.906 405.599 182.406C397.599 178.406 392.099 175.406 392.099 165.906C392.099 157.906 396.099 151.406 406.099 151.406Z" fill="white"/>
<path d="M431.099 152.402H439.099L441.099 181.902L446.599 160.402L452.099 181.902L454.099 152.402H462.099L458.098 204.402H449.599L445.598 183.902L441.599 204.402H434.099L431.099 152.402Z" fill="white"/>
<path d="M472.599 152.402H501.099V160.402H481.599V174.402H499.099V182.402H481.599V196.402H501.099V204.402H472.599V152.402Z" fill="white"/>
<path d="M513.098 204.9V152.9H526.098C537.098 152.9 542.098 159.4 542.098 168.9C542.098 175.4 540.098 180.4 534.098 182.9L541.598 205.9H532.598L525.598 184.9H520.598V205.9H513.098V204.9ZM520.598 175.9H525.598C532.598 175.9 533.098 170.4 533.098 167.9C533.098 165.4 532.598 159.9 525.598 159.9H520.598V175.9Z" fill="white"/>
<path d="M554.599 152.402H583.098V160.402H563.599V174.402H580.598V182.402H563.599V204.902H555.598V152.402H554.599Z" fill="white"/>
<path d="M593.599 152.402H622.099V160.402H612.099V204.402H604.099V160.402H593.599V152.402Z" fill="white"/>
<path d="M378.392 95.8901H370.752C370.349 90.1006 368.097 84.8736 364.478 80.7706L369.866 75.3832C370.51 74.7392 370.51 73.7749 369.866 73.1309C369.222 72.4869 368.257 72.4869 367.613 73.1309L362.226 78.5183C358.123 74.8994 352.895 72.6471 347.105 72.245L347.109 64.6084C347.109 63.7225 346.386 63 345.5 63C344.614 63 343.892 63.7225 343.892 64.6084V72.2481C338.102 72.6502 332.875 74.9026 328.771 78.5214L323.384 73.134C322.74 72.49 321.775 72.49 321.131 73.134C320.487 73.778 320.487 74.7424 321.131 75.3864L326.519 80.7737C322.9 84.8764 320.648 90.1039 320.245 95.8932L312.608 95.8901C311.723 95.8901 311 96.6126 311 97.4984C311 98.3843 311.723 99.1068 312.608 99.1068H320.249C320.651 104.896 322.903 110.123 326.522 114.226L321.134 119.614C320.49 120.258 320.49 121.222 321.134 121.866C321.455 122.186 321.857 122.35 322.259 122.35C322.661 122.35 323.063 122.19 323.384 121.866L328.771 116.479C332.874 120.097 338.102 122.35 343.892 122.752V130.392C343.892 131.278 344.614 132 345.5 132C346.386 132 347.108 131.277 347.108 130.392V122.752C352.898 122.35 358.125 120.097 362.229 116.479L367.616 121.866C367.937 122.186 368.339 122.35 368.741 122.35C369.143 122.35 369.545 122.19 369.866 121.866C370.51 121.222 370.51 120.258 369.866 119.614L364.478 114.226C368.097 110.124 370.349 104.896 370.751 99.1068H378.392C379.277 99.1068 380 98.3843 380 97.4984C380 96.6126 379.278 95.8901 378.392 95.8901ZM366.492 95.8901H354.428H354.268C354.026 94.6021 353.546 93.4775 352.82 92.4314L361.427 83.8243C364.318 87.1258 366.168 91.3068 366.492 95.8901ZM345.5 102.242C342.845 102.242 340.756 100.15 340.756 97.4984C340.756 94.844 342.848 92.755 345.5 92.755C348.154 92.755 350.243 94.8472 350.243 97.4984C350.243 100.153 348.154 102.242 345.5 102.242ZM359.254 81.4963L350.727 90.019L350.567 90.1793C349.521 89.4567 348.396 88.973 347.108 88.7342V88.574V76.5113C351.692 76.8317 355.873 78.6817 359.254 81.4963ZM343.891 76.5079V88.5706V88.7308C342.603 88.9727 341.479 89.4533 340.433 90.179L340.272 90.0188L331.746 81.4961C335.126 78.6814 339.308 76.8314 343.891 76.5079ZM329.497 83.7455L338.105 92.3527C337.458 93.4773 336.974 94.6019 336.735 95.8898H336.575H324.512C324.832 91.3066 326.683 87.1263 329.497 83.7455ZM324.509 99.107H336.572H336.732C336.974 100.395 337.455 101.52 338.181 102.566L338.099 102.647L329.498 111.251C326.683 107.871 324.832 103.691 324.509 99.107ZM331.747 113.5L340.354 104.893C341.4 105.616 342.525 106.099 343.813 106.341V106.502V118.564C339.308 118.165 335.127 116.315 331.747 113.5ZM347.109 118.489V106.426V106.266C348.397 106.024 349.522 105.543 350.568 104.818L359.175 113.425C355.874 116.315 351.693 118.165 347.109 118.489ZM361.503 111.251L352.899 102.644L352.817 102.562C353.539 101.516 354.023 100.392 354.265 99.1036H354.425H366.489C366.168 103.69 364.318 107.871 361.503 111.251Z" fill="white"/>
</svg>
