<svg version="1.1" id="Ebene_1" xmlns="http://www.w3.org/2000/svg" xmlns:xlink="http://www.w3.org/1999/xlink" x="0px" y="0px"
	 viewBox="0 0 643.3 77.6" style="enable-background:new 0 0 643.3 77.6;" xml:space="preserve">
<style type="text/css">
	.st0{fill:#FFFFFF;}
</style>
<path class="st0" d="M90.3,27.5c0-9,4.5-15,14-15c12,0,14,8,14,15v1h-8v-1c0-2,0-7.5-6-7.5s-6,5.5-6,7.5V51c0,2,0,7.5,6,7.5
	s6-5.5,6-7.5v-7.5h-6v-8h14v16c0,9-4.5,15-14,15c-11.5,0-14-8-14-15V27.5z"/>
<path class="st0" d="M130.8,65V13h13c11,0,16,6.5,16,16c0,6.5-2,11.5-8,14l7.5,23h-8.5l-7-21h-5v21h-7.5v-1H130.8z M138.3,36h5
	c7,0,7.5-5.5,7.5-8s-0.5-8-7.5-8h-5V36z"/>
<path class="st0" d="M171.3,50.5v-38h8v38c0,2,0,7.5,6,7.5s6-5.5,6-7.5v-38h8v38c0,9-4.5,15-14,15S171.3,60,171.3,50.5z M174.8,0
	h7.5v8h-7.5V0z M187.8,8.5v-8h7.5v8H187.8z"/>
<path class="st0" d="M219.3,12.5l12,31v-31h8v52h-7.5l-12-31v31h-8v-52H219.3z"/>
<path class="st0" d="M251.8,12.5h13c11,0,15,7,15,14.5v23c0,9-6,14.5-15,14.5h-13L251.8,12.5L251.8,12.5z M259.8,57h5.5
	c6.5,0,7-5.5,7-7V27.5c0-2-1-7-7-7h-5.5V57z"/>
<path class="st0" d="M292.3,50.5v-38h8v38c0,2,0,7.5,6,7.5s6-5.5,6-7.5v-38h8v38c0,9-4.5,15-14,15S292.3,60,292.3,50.5z"/>
<path class="st0" d="M340.8,12.5l12,31v-31h8v52h-8l-12-31v31h-8v-52H340.8z"/>
<path class="st0" d="M372.8,27.5c0-9,4.5-15,14-15c12,0,14,8,14,15v1h-8v-1c0-2,0-7.5-6-7.5s-6,5.5-6,7.5V51c0,2,0,7.5,6,7.5
	s6-5.5,6-7.5v-7.5h-6v-8h14v16c0,9-4.5,15-14,15c-11.5,0-14-8-14-15V27.5z"/>
<path class="st0" d="M427.3,11.5c11.5,0,14,8,14,15V28h-7.5v-1.5c0-2.5,0-7.5-6.5-7.5c-6,0-6,5-6,6.5V26c0,4.5,2.5,6.5,7,8.5
	c8,4,13.5,6,13.5,16.5c0,8.5-4,14.5-14,14.5c-11.5,0-14-8-14-15v-5h7.5v5c0,2.5,0,7.5,6.5,7.5c6,0,6-5,6-6.5V51c0-4-1.5-6-7-8.5
	c-8-4-13.5-7-13.5-16.5C413.3,18,417.3,11.5,427.3,11.5z"/>
<path class="st0" d="M452.3,12.5h8l2,29.5l5.5-21.5l5.5,21.5l2-29.5h8l-4,52h-8.5l-4-20.5l-4,20.5h-7.5L452.3,12.5z"/>
<path class="st0" d="M493.8,12.5h28.5v8h-19.5v14h17.5v8h-17.5v14h19.5v8h-28.5V12.5z"/>
<path class="st0" d="M534.3,65V13h13c11,0,16,6.5,16,16c0,6.5-2,11.5-8,14l7.5,23h-9l-7-21h-5v21h-7.5V65z M541.8,36h5
	c7,0,7.5-5.5,7.5-8s-0.5-8-7.5-8h-5V36z"/>
<path class="st0" d="M575.8,12.5h28.5v8h-19.5v14h17v8h-17V65h-8V12.5H575.8z"/>
<path class="st0" d="M614.8,12.5h28.5v8h-10v44h-8v-44h-10.5V12.5z"/>
<path class="st0" d="M67.4,37.5h-7.6c-0.4-5.8-2.7-11-6.3-15.1l5.4-5.4c0.6-0.6,0.6-1.6,0-2.3c-0.6-0.6-1.6-0.6-2.3,0l-5.4,5.4
	c-4.1-3.6-9.3-5.9-15.1-6.3V6.2c0-0.9-0.7-1.6-1.6-1.6s-1.6,0.7-1.6,1.6v7.6c-5.8,0.4-11,2.7-15.1,6.3l-5.4-5.4
	c-0.6-0.6-1.6-0.6-2.3,0c-0.6,0.6-0.6,1.6,0,2.3l5.4,5.4c-3.6,4.1-5.9,9.3-6.3,15.1H1.6c-0.9,0-1.6,0.7-1.6,1.6s0.7,1.6,1.6,1.6h7.6
	c0.4,5.8,2.7,11,6.3,15.1l-5.4,5.4c-0.6,0.6-0.6,1.6,0,2.3c0.3,0.3,0.7,0.5,1.1,0.5s0.8-0.2,1.1-0.5l5.4-5.4
	c4.1,3.6,9.3,5.9,15.1,6.3V72c0,0.9,0.7,1.6,1.6,1.6S36,72.9,36,72v-7.6c5.8-0.4,11-2.7,15.1-6.3l5.4,5.4c0.3,0.3,0.7,0.5,1.1,0.5
	s0.8-0.2,1.1-0.5c0.6-0.6,0.6-1.6,0-2.3l-5.4-5.4c3.6-4.1,5.9-9.3,6.3-15.1h7.6c0.9,0,1.6-0.7,1.6-1.6C69,38.2,68.3,37.5,67.4,37.5z
	 M55.5,37.5H43.4h-0.2c-0.2-1.3-0.7-2.4-1.4-3.5l8.6-8.6C53.3,28.7,55.2,32.9,55.5,37.5z M34.5,43.8c-2.7,0-4.7-2.1-4.7-4.7
	c0-2.7,2.1-4.7,4.7-4.7c2.7,0,4.7,2.1,4.7,4.7C39.2,41.8,37.2,43.8,34.5,43.8z M48.3,23.1l-8.5,8.5l-0.2,0.2c-1-0.7-2.2-1.2-3.5-1.4
	v-0.2V18.1C40.7,18.4,44.9,20.3,48.3,23.1z M32.9,18.1v12.1v0.2c-1.3,0.2-2.4,0.7-3.5,1.4l-0.2-0.2l-8.5-8.5
	C24.1,20.3,28.3,18.4,32.9,18.1z M18.5,25.3l8.6,8.6c-0.6,1.1-1.1,2.2-1.4,3.5h-0.2H13.4C13.8,32.9,15.7,28.7,18.5,25.3z M13.5,40.7
	h12.1h0.2c0.2,1.3,0.7,2.4,1.4,3.5l-0.1,0.1l-8.6,8.6C15.7,49.5,13.8,45.3,13.5,40.7z M20.7,55.1l8.6-8.6c1,0.7,2.2,1.2,3.5,1.4v0.2
	v12.1C28.3,59.8,24.1,57.9,20.7,55.1z M36.1,60.1V48v-0.2c1.3-0.2,2.4-0.7,3.5-1.4l8.6,8.6C44.9,57.9,40.7,59.8,36.1,60.1z
	 M50.5,52.9l-8.6-8.6l-0.1-0.1c0.7-1,1.2-2.2,1.4-3.5h0.2h12.1C55.2,45.3,53.3,49.5,50.5,52.9z"/>
</svg>
